<svg width="80" height="55" viewBox="0 0 80 55" fill="none" xmlns="http://www.w3.org/2000/svg">
<path d="M13.1011 40.057C14.6923 40.057 15.9822 38.9431 15.9822 37.5691C15.9822 36.195 14.6923 35.0812 13.1011 35.0812C11.5099 35.0812 10.22 36.195 10.22 37.5691C10.22 38.9431 11.5099 40.057 13.1011 40.057Z" stroke="#D97706" stroke-width="3" stroke-miterlimit="10"/>
<path d="M7.73938 27.4102H12.6209V22.5032" stroke="#D97706" stroke-width="3" stroke-miterlimit="10" stroke-linecap="round" stroke-linejoin="round"/>
<path d="M52.5567 40.057C54.1479 40.057 55.4378 38.9431 55.4378 37.5691C55.4378 36.195 54.1479 35.0812 52.5567 35.0812C50.9655 35.0812 49.6756 36.195 49.6756 37.5691C49.6756 38.9431 50.9655 40.057 52.5567 40.057Z" stroke="#D97706" stroke-width="3" stroke-miterlimit="10"/>
<path d="M43.9134 40.057C45.5046 40.057 46.7945 38.9431 46.7945 37.5691C46.7945 36.195 45.5046 35.0812 43.9134 35.0812C42.3223 35.0812 41.0323 36.195 41.0323 37.5691C41.0323 38.9431 42.3223 40.057 43.9134 40.057Z" stroke="#D97706" stroke-width="3" stroke-miterlimit="10"/>
<path d="M7.34562 36.4331H3.04318C2.79013 36.4331 2.5473 36.3469 2.36747 36.1931C2.18764 36.0394 2.08534 35.8306 2.08281 35.6121L2.00022 30.4066C1.99454 30.0126 2.09758 29.6231 2.30082 29.2704C2.55435 28.8309 2.87704 28.2744 2.91545 28.2305C2.97115 28.1666 3.77882 26.2095 5.15598 21.9203C6.54851 17.5831 15.2686 17.0108 18.2266 16.9445C18.3543 16.9423 18.4812 16.9621 18.6 17.0028C18.7187 17.0435 18.8269 17.1042 18.9181 17.1815C19.0093 17.2587 19.0818 17.3509 19.1312 17.4526C19.1807 17.5543 19.2062 17.6635 19.2061 17.7738V35.6038C19.2061 35.8692 19.2032 36.2216 19.2032 36.2216" stroke="#D97706" stroke-width="3" stroke-miterlimit="10" stroke-linecap="round" stroke-linejoin="round"/>
<path d="M38.351 35.8607H22.5674V16.8863C22.5674 16.4302 22.9995 16.057 23.5277 16.057H61.0396C61.5678 16.057 62 16.4302 62 16.8863V35.0314C62 35.4875 61.5678 35.8607 61.0396 35.8607H58.0529" stroke="#D97706" stroke-width="3" stroke-miterlimit="10" stroke-linecap="round" stroke-linejoin="round"/>
<path d="M4.79199 48.2881H2.20117V46.9277H4.79199C5.24316 46.9277 5.60775 46.8548 5.88574 46.709C6.16374 46.5632 6.36654 46.3626 6.49414 46.1074C6.6263 45.8477 6.69238 45.5514 6.69238 45.2188C6.69238 44.9043 6.6263 44.6104 6.49414 44.3369C6.36654 44.0589 6.16374 43.8356 5.88574 43.667C5.60775 43.4984 5.24316 43.4141 4.79199 43.4141H2.72754V52H1.01172V42.0469H4.79199C5.56217 42.0469 6.21615 42.1836 6.75391 42.457C7.29622 42.7259 7.70866 43.0996 7.99121 43.5781C8.27376 44.0521 8.41504 44.5944 8.41504 45.2051C8.41504 45.8477 8.27376 46.3991 7.99121 46.8594C7.70866 47.3197 7.29622 47.6729 6.75391 47.9189C6.21615 48.165 5.56217 48.2881 4.79199 48.2881ZM12.0449 51.1934L14.0547 44.6035H15.8184L12.8516 53.1279C12.7832 53.3102 12.6943 53.5085 12.585 53.7227C12.4756 53.9368 12.332 54.1396 12.1543 54.3311C11.9811 54.527 11.7646 54.6842 11.5049 54.8027C11.2451 54.9258 10.9307 54.9873 10.5615 54.9873C10.4157 54.9873 10.2744 54.9736 10.1377 54.9463C10.0055 54.9235 9.88021 54.8984 9.76172 54.8711L9.75488 53.6133C9.80046 53.6178 9.85514 53.6224 9.91895 53.627C9.9873 53.6315 10.042 53.6338 10.083 53.6338C10.3564 53.6338 10.5843 53.5996 10.7666 53.5312C10.9489 53.4674 11.097 53.3626 11.2109 53.2168C11.3294 53.071 11.4297 52.875 11.5117 52.6289L12.0449 51.1934ZM10.9102 44.6035L12.667 50.1406L12.9609 51.877L11.8193 52.1709L9.13281 44.6035H10.9102ZM19.6875 50.8242C19.9564 50.8242 20.1979 50.7718 20.4121 50.667C20.6309 50.5576 20.8063 50.4072 20.9385 50.2158C21.0752 50.0244 21.1504 49.8034 21.1641 49.5527H22.7158C22.7067 50.0312 22.5654 50.4665 22.292 50.8584C22.0186 51.2503 21.6562 51.5625 21.2051 51.7949C20.7539 52.0228 20.2549 52.1367 19.708 52.1367C19.1429 52.1367 18.6507 52.041 18.2314 51.8496C17.8122 51.6536 17.4635 51.3848 17.1855 51.043C16.9076 50.7012 16.6979 50.307 16.5566 49.8604C16.4199 49.4137 16.3516 48.9352 16.3516 48.4248V48.1855C16.3516 47.6751 16.4199 47.1966 16.5566 46.75C16.6979 46.2988 16.9076 45.9023 17.1855 45.5605C17.4635 45.2188 17.8122 44.9521 18.2314 44.7607C18.6507 44.5648 19.1406 44.4668 19.7012 44.4668C20.2936 44.4668 20.8132 44.5853 21.2598 44.8223C21.7064 45.0547 22.0573 45.3805 22.3125 45.7998C22.5723 46.2145 22.7067 46.6976 22.7158 47.249H21.1641C21.1504 46.9756 21.082 46.7295 20.959 46.5107C20.8405 46.2874 20.6719 46.1097 20.4531 45.9775C20.2389 45.8454 19.9814 45.7793 19.6807 45.7793C19.348 45.7793 19.0723 45.8477 18.8535 45.9844C18.6348 46.1165 18.4639 46.2988 18.3408 46.5312C18.2178 46.7591 18.1289 47.0166 18.0742 47.3037C18.0241 47.5863 17.999 47.8802 17.999 48.1855V48.4248C17.999 48.7301 18.0241 49.0264 18.0742 49.3135C18.1243 49.6006 18.2109 49.8581 18.334 50.0859C18.4616 50.3092 18.6348 50.4893 18.8535 50.626C19.0723 50.7581 19.3503 50.8242 19.6875 50.8242ZM28.2393 42.0469V52H26.5371V42.0469H28.2393ZM31.3633 42.0469V43.4141H23.4404V42.0469H31.3633ZM33.4688 46.0254V54.8438H31.8213V44.6035H33.3389L33.4688 46.0254ZM38.2881 48.2334V48.377C38.2881 48.9147 38.2243 49.4137 38.0967 49.874C37.9736 50.3298 37.7891 50.7285 37.543 51.0703C37.3014 51.4076 37.0029 51.6696 36.6475 51.8564C36.292 52.0433 35.8818 52.1367 35.417 52.1367C34.9567 52.1367 34.5534 52.0524 34.207 51.8838C33.8652 51.7106 33.5758 51.4668 33.3389 51.1523C33.1019 50.8379 32.9105 50.4688 32.7646 50.0449C32.6234 49.6165 32.5231 49.1471 32.4639 48.6367V48.083C32.5231 47.5407 32.6234 47.0485 32.7646 46.6064C32.9105 46.1644 33.1019 45.7839 33.3389 45.4648C33.5758 45.1458 33.8652 44.8997 34.207 44.7266C34.5488 44.5534 34.9476 44.4668 35.4033 44.4668C35.8682 44.4668 36.2806 44.5579 36.6406 44.7402C37.0007 44.918 37.3037 45.1732 37.5498 45.5059C37.7959 45.834 37.9805 46.2305 38.1035 46.6953C38.2266 47.1556 38.2881 47.6683 38.2881 48.2334ZM36.6406 48.377V48.2334C36.6406 47.8916 36.6087 47.5749 36.5449 47.2832C36.4811 46.987 36.3809 46.7272 36.2441 46.5039C36.1074 46.2806 35.932 46.1074 35.7178 45.9844C35.5081 45.8568 35.2552 45.793 34.959 45.793C34.6673 45.793 34.4167 45.8431 34.207 45.9434C33.9974 46.0391 33.8219 46.1735 33.6807 46.3467C33.5394 46.5199 33.43 46.7227 33.3525 46.9551C33.2751 47.1829 33.2204 47.4313 33.1885 47.7002V49.0264C33.2432 49.3545 33.3366 49.6553 33.4688 49.9287C33.6009 50.2021 33.7878 50.4209 34.0293 50.585C34.2754 50.7445 34.5898 50.8242 34.9727 50.8242C35.2689 50.8242 35.5218 50.7604 35.7314 50.6328C35.9411 50.5052 36.112 50.3298 36.2441 50.1064C36.3809 49.8786 36.4811 49.6165 36.5449 49.3203C36.6087 49.0241 36.6406 48.7096 36.6406 48.377ZM43.8594 50.5166V46.9893C43.8594 46.7249 43.8115 46.4971 43.7158 46.3057C43.6201 46.1143 43.4743 45.9661 43.2783 45.8613C43.0869 45.7565 42.8454 45.7041 42.5537 45.7041C42.2848 45.7041 42.0524 45.7497 41.8564 45.8408C41.6605 45.932 41.5078 46.055 41.3984 46.21C41.2891 46.3649 41.2344 46.5404 41.2344 46.7363H39.5938C39.5938 46.4447 39.6644 46.1621 39.8057 45.8887C39.9469 45.6152 40.152 45.3714 40.4209 45.1572C40.6898 44.943 41.0111 44.7744 41.3848 44.6514C41.7585 44.5283 42.1777 44.4668 42.6426 44.4668C43.1986 44.4668 43.6908 44.5602 44.1191 44.7471C44.5521 44.9339 44.8916 45.2165 45.1377 45.5947C45.3883 45.9684 45.5137 46.4378 45.5137 47.0029V50.291C45.5137 50.6283 45.5365 50.9313 45.582 51.2002C45.6322 51.4645 45.7028 51.6947 45.7939 51.8906V52H44.1055C44.028 51.8223 43.9665 51.5967 43.9209 51.3232C43.8799 51.0452 43.8594 50.7764 43.8594 50.5166ZM44.0986 47.502L44.1123 48.5205H42.9297C42.6243 48.5205 42.3555 48.5501 42.123 48.6094C41.8906 48.6641 41.6969 48.7461 41.542 48.8555C41.387 48.9648 41.2708 49.097 41.1934 49.252C41.1159 49.4069 41.0771 49.5824 41.0771 49.7783C41.0771 49.9743 41.1227 50.1543 41.2139 50.3184C41.305 50.4779 41.4372 50.6032 41.6104 50.6943C41.7881 50.7855 42.0023 50.8311 42.2529 50.8311C42.5902 50.8311 42.8841 50.7627 43.1348 50.626C43.39 50.4847 43.5905 50.3138 43.7363 50.1133C43.8822 49.9082 43.9596 49.7145 43.9688 49.5322L44.502 50.2637C44.4473 50.4505 44.3538 50.651 44.2217 50.8652C44.0895 51.0794 43.9163 51.2845 43.7021 51.4805C43.4925 51.6719 43.2396 51.8291 42.9434 51.9521C42.6517 52.0752 42.3145 52.1367 41.9316 52.1367C41.4486 52.1367 41.0179 52.041 40.6396 51.8496C40.2614 51.6536 39.9652 51.3916 39.751 51.0635C39.5368 50.7308 39.4297 50.3548 39.4297 49.9355C39.4297 49.5436 39.5026 49.1973 39.6484 48.8965C39.7988 48.5911 40.0176 48.3359 40.3047 48.1309C40.5964 47.9258 40.9518 47.7708 41.3711 47.666C41.7904 47.5566 42.2689 47.502 42.8066 47.502H44.0986ZM52.2881 47.6934V48.9922H48.46V47.6934H52.2881ZM48.9385 44.6035V52H47.291V44.6035H48.9385ZM53.4775 44.6035V52H51.8301V44.6035H53.4775ZM58.2559 50.8242C58.5247 50.8242 58.7663 50.7718 58.9805 50.667C59.1992 50.5576 59.3747 50.4072 59.5068 50.2158C59.6436 50.0244 59.7188 49.8034 59.7324 49.5527H61.2842C61.2751 50.0312 61.1338 50.4665 60.8604 50.8584C60.5869 51.2503 60.2246 51.5625 59.7734 51.7949C59.3223 52.0228 58.8232 52.1367 58.2764 52.1367C57.7113 52.1367 57.2191 52.041 56.7998 51.8496C56.3805 51.6536 56.0319 51.3848 55.7539 51.043C55.4759 50.7012 55.2663 50.307 55.125 49.8604C54.9883 49.4137 54.9199 48.9352 54.9199 48.4248V48.1855C54.9199 47.6751 54.9883 47.1966 55.125 46.75C55.2663 46.2988 55.4759 45.9023 55.7539 45.5605C56.0319 45.2188 56.3805 44.9521 56.7998 44.7607C57.2191 44.5648 57.709 44.4668 58.2695 44.4668C58.862 44.4668 59.3815 44.5853 59.8281 44.8223C60.2747 45.0547 60.6257 45.3805 60.8809 45.7998C61.1406 46.2145 61.2751 46.6976 61.2842 47.249H59.7324C59.7188 46.9756 59.6504 46.7295 59.5273 46.5107C59.4089 46.2874 59.2402 46.1097 59.0215 45.9775C58.8073 45.8454 58.5498 45.7793 58.249 45.7793C57.9163 45.7793 57.6406 45.8477 57.4219 45.9844C57.2031 46.1165 57.0322 46.2988 56.9092 46.5312C56.7861 46.7591 56.6973 47.0166 56.6426 47.3037C56.5924 47.5863 56.5674 47.8802 56.5674 48.1855V48.4248C56.5674 48.7301 56.5924 49.0264 56.6426 49.3135C56.6927 49.6006 56.7793 49.8581 56.9023 50.0859C57.0299 50.3092 57.2031 50.4893 57.4219 50.626C57.6406 50.7581 57.9186 50.8242 58.2559 50.8242Z" fill="black"/>
</svg>
