<svg width="30" height="30" viewBox="0 0 30 30" fill="none" xmlns="http://www.w3.org/2000/svg">
<path d="M22.1338 15.3663C22.0178 15.2501 21.8801 15.1579 21.7284 15.095C21.5768 15.0321 21.4142 14.9998 21.2501 14.9998C21.0859 14.9998 20.9233 15.0321 20.7717 15.095C20.62 15.1579 20.4823 15.2501 20.3663 15.3663L18.3738 17.3588C17.4501 17.0838 15.7263 16.4588 14.6338 15.3663C13.5413 14.2738 12.9163 12.55 12.6413 11.6263L14.6338 9.63376C14.75 9.51777 14.8422 9.38002 14.905 9.22837C14.9679 9.07673 15.0003 8.91417 15.0003 8.75001C15.0003 8.58584 14.9679 8.42328 14.905 8.27164C14.8422 8.12 14.75 7.98224 14.6338 7.86626L9.6338 2.86626C9.51782 2.75008 9.38006 2.6579 9.22842 2.59501C9.07677 2.53213 8.91422 2.49976 8.75005 2.49976C8.58588 2.49976 8.42333 2.53213 8.27168 2.59501C8.12004 2.6579 7.98229 2.75008 7.8663 2.86626L4.4763 6.25626C4.0013 6.73126 3.7338 7.38376 3.7438 8.05001C3.77255 9.83001 4.2438 16.0125 9.1163 20.885C13.9888 25.7575 20.1713 26.2275 21.9526 26.2575H21.9876C22.6476 26.2575 23.2713 25.9975 23.7438 25.525L27.1338 22.135C27.25 22.019 27.3422 21.8813 27.405 21.7296C27.4679 21.578 27.5003 21.4154 27.5003 21.2513C27.5003 21.0871 27.4679 20.9245 27.405 20.7729C27.3422 20.6212 27.25 20.4835 27.1338 20.3675L22.1338 15.3663ZM21.9751 23.7563C20.4151 23.73 15.0776 23.3113 10.8838 19.1163C6.6763 14.9088 6.2688 9.55251 6.2438 8.02376L8.75005 5.51751L11.9826 8.75001L10.3663 10.3663C10.2194 10.5131 10.1114 10.6942 10.052 10.8932C9.99263 11.0923 9.9838 11.3029 10.0263 11.5063C10.0563 11.65 10.7901 15.0588 12.8651 17.1338C14.9401 19.2088 18.3488 19.9425 18.4926 19.9725C18.6957 20.0162 18.9066 20.0081 19.1059 19.9489C19.3051 19.8897 19.4862 19.7813 19.6326 19.6338L21.2501 18.0175L24.4826 21.25L21.9751 23.7563Z" fill="#D97706"/>
</svg>
