<svg width="20" height="20" viewBox="0 0 20 20" fill="none" xmlns="http://www.w3.org/2000/svg">
<path d="M14.7558 10.2442C14.6785 10.1667 14.5867 10.1053 14.4856 10.0633C14.3845 10.0214 14.2761 9.99984 14.1667 9.99984C14.0572 9.99984 13.9489 10.0214 13.8478 10.0633C13.7467 10.1053 13.6548 10.1667 13.5775 10.2442L12.2492 11.5725C11.6333 11.3892 10.4842 10.9725 9.75585 10.2442C9.02751 9.51584 8.61085 8.36667 8.42751 7.75084L9.75585 6.4225C9.8333 6.34518 9.89475 6.25335 9.93668 6.15225C9.9786 6.05115 10.0002 5.94278 10.0002 5.83334C10.0002 5.72389 9.9786 5.61552 9.93668 5.51443C9.89475 5.41333 9.8333 5.32149 9.75585 5.24417L6.42251 1.91084C6.34519 1.83338 6.25335 1.77194 6.15226 1.73001C6.05116 1.68808 5.94279 1.6665 5.83335 1.6665C5.7239 1.6665 5.61553 1.68808 5.51444 1.73001C5.41334 1.77194 5.3215 1.83338 5.24418 1.91084L2.98418 4.17084C2.66751 4.4875 2.48918 4.9225 2.49585 5.36667C2.51501 6.55334 2.82918 10.675 6.07751 13.9233C9.32585 17.1717 13.4475 17.485 14.635 17.505H14.6583C15.0983 17.505 15.5142 17.3317 15.8292 17.0167L18.0892 14.7567C18.1666 14.6793 18.2281 14.5875 18.27 14.4864C18.3119 14.3853 18.3335 14.2769 18.3335 14.1675C18.3335 14.0581 18.3119 13.9497 18.27 13.8486C18.2281 13.7475 18.1666 13.6557 18.0892 13.5783L14.7558 10.2442ZM14.65 15.8375C13.61 15.82 10.0517 15.5408 7.25585 12.7442C4.45085 9.93917 4.17918 6.36834 4.16251 5.34917L5.83335 3.67834L7.98835 5.83334L6.91085 6.91084C6.8129 7.00871 6.74088 7.12945 6.70131 7.26214C6.66173 7.39484 6.65585 7.5353 6.68418 7.67084C6.70418 7.76667 7.19335 10.0392 8.57668 11.4225C9.96001 12.8058 12.2325 13.295 12.3283 13.315C12.4638 13.3441 12.6044 13.3387 12.7372 13.2993C12.87 13.2598 12.9908 13.1875 13.0883 13.0892L14.1667 12.0117L16.3217 14.1667L14.65 15.8375V15.8375Z" fill="#D97706"/>
</svg>
