<svg width="13" height="14" viewBox="0 0 13 14" fill="none" xmlns="http://www.w3.org/2000/svg">
<path d="M9.70553 7.71805C9.64942 7.65695 9.58278 7.60848 9.50942 7.57541C9.43606 7.54234 9.35743 7.52532 9.27801 7.52532C9.1986 7.52532 9.11996 7.54234 9.04661 7.57541C8.97325 7.60848 8.90661 7.65695 8.8505 7.71805L7.88664 8.76584C7.43978 8.62122 6.60592 8.29256 6.07743 7.71805C5.54893 7.14354 5.24659 6.23708 5.11356 5.75131L6.07743 4.70352C6.13363 4.64253 6.17822 4.57009 6.20864 4.49035C6.23906 4.4106 6.25472 4.32512 6.25472 4.23879C6.25472 4.15246 6.23906 4.06698 6.20864 3.98723C6.17822 3.90749 6.13363 3.83505 6.07743 3.77406L3.65869 1.14473C3.60259 1.08363 3.53595 1.03516 3.46259 1.00209C3.38923 0.969018 3.3106 0.951996 3.23118 0.951996C3.15177 0.951996 3.07313 0.969018 2.99977 1.00209C2.92642 1.03516 2.85978 1.08363 2.80367 1.14473L1.16377 2.92741C0.933991 3.1772 0.804589 3.52032 0.809427 3.87068C0.823334 4.80672 1.0513 8.05789 3.40835 10.6202C5.76541 13.1825 8.75617 13.4296 9.61785 13.4454H9.63478C9.95405 13.4454 10.2558 13.3087 10.4844 13.0602L12.1243 11.2775C12.1805 11.2165 12.225 11.1441 12.2555 11.0643C12.2859 10.9846 12.3016 10.8991 12.3016 10.8128C12.3016 10.7264 12.2859 10.641 12.2555 10.5612C12.225 10.4815 12.1805 10.409 12.1243 10.348L9.70553 7.71805ZM9.62873 12.1301C8.87409 12.1163 6.29209 11.8961 4.26338 9.69005C2.22801 7.47746 2.03089 4.6608 2.01879 3.85688L3.23118 2.53893L4.79489 4.23879L4.01304 5.08872C3.94196 5.16592 3.88971 5.26116 3.86099 5.36583C3.83228 5.4705 3.828 5.58129 3.84856 5.68821C3.86308 5.7638 4.21803 7.55634 5.2218 8.64752C6.22557 9.73869 7.87454 10.1245 7.94408 10.1403C8.04237 10.1633 8.1444 10.159 8.24077 10.1279C8.33714 10.0968 8.42476 10.0398 8.49555 9.96218L9.27801 9.11225L10.8417 10.8121L9.62873 12.1301Z" fill="#D97706"/>
</svg>
